<svg xmlns="http://www.w3.org/2000/svg" viewBox="0 0 513 518.32"><defs><style>.cls-1{fill:#fff;}.cls-2{fill:#236cef;}</style></defs><title>logo-alib-transparent</title><g id="Layer_2" data-name="Layer 2"><g id="Layer_1-2" data-name="Layer 1"><path class="cls-1" d="M513,242.32V192.84a7.12,7.12,0,0,0-7.12-7.12H348.4l26.44,53.44h74c0,38.34-10.49,68.85-28.46,92.07L449,388.93A199.34,199.34,0,0,0,513,242.32Z"/><path class="cls-1" d="M279.71,388.78H233.29c-35.45,0-68.35-6.71-95.53-20.66l-26.44,53.44a199.05,199.05,0,0,0,88.58,20.66H313.1a199.05,199.05,0,0,0,88.58-20.66l-26.44-53.44C348.05,382.06,315.16,388.78,279.71,388.78Z"/><polygon class="cls-1" points="284.98 185.71 228.02 185.71 201.58 239.15 311.42 239.15 284.98 185.71"/><path class="cls-1" d="M64.13,239.15h74l26.44-53.44H7.13A7.12,7.12,0,0,0,0,192.84v49.48A199.34,199.34,0,0,0,64,388.93l28.56-57.71C74.61,308,64.13,277.49,64.13,239.15Z"/><path class="cls-2" d="M138.15,239.15,92.59,331.22c12,15.51,27.36,27.76,45.17,36.89l63.82-129Z"/><path class="cls-2" d="M449.57,518.32H513L449,388.93a200.3,200.3,0,0,1-47.28,32.62Z"/><path class="cls-2" d="M0,518.32H63.43l47.89-96.77A200.3,200.3,0,0,1,64,388.93Z"/><polygon class="cls-2" points="256.5 128.17 284.98 185.71 348.4 185.71 256.5 0 164.6 185.71 228.02 185.71 256.5 128.17"/><path class="cls-2" d="M375.24,368.11C393,359,408.4,346.73,420.41,331.22l-45.56-92.07H311.42Z"/><path class="cls-1" d="M375.24,368.11l26.44,53.44A200.3,200.3,0,0,0,449,388.93l-28.56-57.71C408.4,346.73,393,359,375.24,368.11Z"/><path class="cls-2" d="M92.59,331.22,64,388.93a200.3,200.3,0,0,0,47.28,32.62l26.44-53.44C120,359,104.6,346.73,92.59,331.22Z"/><polygon class="cls-2" points="311.42 239.15 374.85 239.15 348.4 185.71 284.98 185.71 311.42 239.15"/><polygon class="cls-1" points="201.58 239.15 228.02 185.71 164.6 185.71 138.15 239.15 201.58 239.15"/></g></g></svg>